<svg width="102" height="103" viewBox="0 0 102 103" fill="none" xmlns="http://www.w3.org/2000/svg">
<path d="M100.772 41.2578C102.108 48.9756 93.9123 46.9199 93.9123 46.9199C90.4822 37.2546 84.994 38.1563 84.994 38.1563C89.2907 41.2939 89.6156 43.9626 89.6156 43.9626C78.17 35.8481 62.6082 42.3758 56.6868 45.4413C53.365 40.7529 46.6492 30.2582 49.0323 25.4976C52.1735 19.2585 58.5643 22.8289 58.5643 22.8289C71.4903 22.6125 70.7682 17.9962 70.7682 17.9962C67.3381 20.665 57.2284 17.9962 57.2284 17.9962C66.0022 17.9962 69.7211 14.4259 69.7211 14.4259C63.1859 16.0488 55.8924 9.08833 55.8924 9.08833C53.2206 -4.58009 40.8723 1.22629 40.8723 1.22629C48.599 -0.108098 46.5409 8.07853 46.5409 8.07853C36.8645 11.5046 37.7671 16.9864 37.7671 16.9864C40.9084 12.6948 43.5802 12.3702 43.5802 12.3702C34.7342 24.8124 43.2553 42.1233 45.7827 46.6314C41.1611 49.8411 30.3292 56.9098 25.4549 54.4574C19.2085 51.3198 22.783 44.9364 22.783 44.9364C22.6386 32.0253 18.017 32.7466 18.017 32.7466C20.6889 36.1727 18.017 46.2708 18.017 46.2708C18.017 37.5071 14.4425 33.7925 14.4425 33.7925C16.0673 40.3201 9.0988 47.6051 9.0988 47.6051C-4.58546 50.2739 1.22764 62.6079 1.22764 62.6079C-0.108286 54.8902 8.08782 56.9458 8.08782 56.9458C11.5179 66.6111 17.0061 65.7095 17.0061 65.7095C12.7094 62.5719 12.3845 59.9031 12.3845 59.9031C24.48 68.4864 41.1972 60.6965 46.2521 57.9556C49.6461 62.8243 55.9646 72.8502 53.6177 77.5025C50.4765 83.7417 44.0857 80.1713 44.0857 80.1713C31.1597 80.3156 31.8818 84.9318 31.8818 84.9318C35.3119 82.2631 45.4216 84.9318 45.4216 84.9318C36.6478 84.9318 32.9289 88.5022 32.9289 88.5022C39.4641 86.8793 46.7576 93.8397 46.7576 93.8397C49.4294 107.508 61.7777 101.702 61.7777 101.702C54.051 103.036 56.1091 94.8495 56.1091 94.8495C65.7855 91.4234 64.8829 85.9416 64.8829 85.9416C61.7416 90.2333 59.0698 90.5579 59.0698 90.5579C67.7353 78.4042 59.7558 61.5621 57.0478 56.6212C61.9583 53.1951 71.8875 47.0642 76.473 49.3723C82.7193 52.5099 79.1448 58.8933 79.1448 58.8933C79.2892 71.8044 83.9108 71.0831 83.9108 71.0831C81.239 67.657 83.9108 57.5589 83.9108 57.5589C83.9108 66.3226 87.4854 70.0372 87.4854 70.0372C85.8606 63.5095 92.8291 56.2245 92.8291 56.2245C106.586 53.5918 100.772 41.2578 100.772 41.2578Z" fill="url(#paint0_linear_1_6)"/>
<defs>
<linearGradient id="paint0_linear_1_6" x1="50.9966" y1="0.00115967" x2="50.9966" y2="102.927" gradientUnits="userSpaceOnUse">
<stop stop-color="#C0B7E8"/>
<stop offset="1" stop-color="#8176AF"/>
</linearGradient>
</defs>
</svg>
